<svg xmlns="http://www.w3.org/2000/svg" width="117" height="117" viewBox="0 0 117 117">
    <g fill="none" fill-rule="evenodd">
        <path d="M0 0h117v117H0z"/>
        <g fill="#C1E5A9" fill-rule="nonzero" opacity=".56">
            <path d="M110.26 55.06c1 11.44-.58 28.27-7.89 39.43-13.12 20-34.71 25.74-57.83 19.45C21.42 107.65 6.28 87.92 5.12 64 3.96 40.08 16.89 19.93 39.29 11.43c37.91-14.43 68 8.79 70.97 43.63z" opacity=".68"/>
            <path d="M112.6 49.6c1 11.44-.58 28.27-7.89 39.43-13.12 20-34.71 25.74-57.83 19.45-23.12-6.29-38.26-26-39.43-49.94C6.28 34.6 19.24 14.47 41.63 6c37.91-14.43 68 8.76 70.97 43.6z"/>
        </g>
        <path fill="#C1E5A9" fill-rule="nonzero" stroke="#C1E5A9" stroke-linecap="round" stroke-linejoin="round" stroke-width="4" d="M93.6 57c-2.81-.25-5.74 1-9.66 7.54l-9.35 3.85-.28.07a3.19 3.19 0 0 0-3-3.32l-7.12-.49c-4.31-.79-5.28-1.59-7.24-3S46 60 41.33 60.62c-3.92.56-11.21 7.82-13.43 10.12l-2-2.56L17.25 75l16.86 21.25 8.62-6.84-2.23-2.81 3.3-2.51 22.13 1.53a5.44 5.44 0 0 0 3.69-1.12l18.91-14.57a5.35 5.35 0 0 0 1.26-1.38 47.43 47.43 0 0 0 4.8-10.07A1.15 1.15 0 0 0 93.6 57z"/>
        <path fill="#C1E5A9" fill-rule="nonzero" stroke="#C1E5A9" stroke-linecap="round" stroke-linejoin="round" stroke-width="2" d="M76.13 29.6h.16a1.39 1.39 0 0 0 1.48-1.29v-.32a1.39 1.39 0 0 0-1.29-1.48h-.24l5.07-5.9c-2.48-4.56-7.06-.82-7.06-.82l-3.09-4.27-4.48 4.08c-3.52-4.8-6.38-.44-6.38-.44l4.1 6.53h-.39a1.39 1.39 0 0 0-1.48 1.29v.32a1.39 1.39 0 0 0 1.29 1.48H64C39 48.5 46.83 61 52.7 66.19a12.18 12.18 0 0 0 7.25 3l7.22.5 5.5.38a16.35 16.35 0 0 0 14.49-6.58c4.35-6.08 5.46-16.72-11.03-33.89z" opacity=".3"/>
        <path fill="#AAD188" fill-rule="nonzero" stroke="#383838" d="M65.18 27.43l-3.76-6s2.63-4 5.86.4l4.11-3.74L74.22 22s4.2-3.43 6.48.76L76 28.18l-10.82-.75z"/>
        <path fill="#AAD188" fill-rule="nonzero" d="M64.81 30.25C41.86 48.34 49 59.78 54.43 64.56a11.18 11.18 0 0 0 6.65 2.78l6.62.46 5 .35a15 15 0 0 0 13.3-6c4-5.59 5-15.35-10.12-31.09"/>
        <path stroke="#383838" d="M53.19 41.94c-8 11.43-2.87 19 1.25 22.62a11.18 11.18 0 0 0 6.65 2.78l6.62.46 5 .35a15 15 0 0 0 13.3-6c4-5.59 5-15.35-10.12-31.09"/>
        <path fill="#FFF" fill-rule="nonzero" stroke="#383838" stroke-linecap="round" stroke-linejoin="round" d="M74.59 68.39l9.35-3.85c3.92-6.58 6.86-7.79 9.66-7.54a1.15 1.15 0 0 1 1 1.51 47.41 47.41 0 0 1-4.8 10.07 5.35 5.35 0 0 1-1.26 1.38L69.62 84.52a5.44 5.44 0 0 1-3.69 1.12L43.8 84.11l-4.15 3.15-12.4-15.83s9.42-10.15 14.09-10.81c4.67-.66 13.62-.29 15.58 1.07 1.96 1.36 2.93 2.17 7.24 3l7.12.49a3.19 3.19 0 0 1 3 3.34l-.21 3.06a3.19 3.19 0 0 1-3.47 2.89l-15.66-1.13"/>
        <path fill="gray" fill-rule="nonzero" stroke="#383838" stroke-linecap="round" stroke-linejoin="round" d="M17.26 75.008l8.617-6.837 16.857 21.245-8.617 6.837z"/>
        <path stroke="#383838" d="M55.43 38.94c-.34.402-.657.823-.95 1.26M64.81 30.25a71.28 71.28 0 0 0-7.81 7"/>
        <path fill="gray" fill-rule="nonzero" d="M76.2 31.53l-11.76-.81a1.62 1.62 0 0 1-1.5-1.72v-.6a1.62 1.62 0 0 1 1.61-1.5h.11l11.76.81A1.62 1.62 0 0 1 78 29.43v.6a1.62 1.62 0 0 1-1.61 1.5h-.19z"/>
        <path fill="#383838" fill-rule="nonzero" d="M64.59 27.39h.08l11.76.81a1.12 1.12 0 0 1 1 1.19v.6a1.12 1.12 0 0 1-1.11 1h-.08l-11.76-.81a1.12 1.12 0 0 1-1-1.19v-.6a1.12 1.12 0 0 1 1.11-1zm0-1a2.12 2.12 0 0 0-2.11 2v.6a2.12 2.12 0 0 0 2 2.26l11.68.75h.15a2.12 2.12 0 0 0 2.11-2v-.6a2.12 2.12 0 0 0-2-2.26l-11.76-.81-.07.06z"/>
        <path fill="#000" fill-rule="nonzero" d="M57.51 56.2v-.83L62 49.09h-4.5v-.89h5.77v.8l-4.5 6.28h4.58v.89zM71.73 56.2v-6.58L69 56.2h-.4l-2.71-6.58v6.58h-1v-8h1.43l2.48 6 2.49-6h1.43v8zM79.43 56.2l-3-3.6-.8.91v2.69h-1v-8h1v4.14l3.54-4.14h1.25L77 52l3.62 4.2z"/>
    </g>
</svg>
